<svg xmlns="http://www.w3.org/2000/svg" viewBox="0 0 1024 768" role="img" aria-label="Giba Awards">
  <defs>
    <radialGradient id="gold" cx="38%" cy="22%" r="85%">
      <stop offset="0" stop-color="#fff2a5"/>
      <stop offset=".28" stop-color="#f6ce45"/>
      <stop offset=".54" stop-color="#d99a05"/>
      <stop offset=".76" stop-color="#fff08c"/>
      <stop offset="1" stop-color="#b87800"/>
    </radialGradient>
    <radialGradient id="redGlow" cx="50%" cy="50%" r="50%">
      <stop offset="0" stop-color="#ffe3d8"/>
      <stop offset=".35" stop-color="#ff8f7f"/>
      <stop offset="1" stop-color="#ff6f6f" stop-opacity="0"/>
    </radialGradient>
    <radialGradient id="blueGlow" cx="50%" cy="50%" r="50%">
      <stop offset="0" stop-color="#e9fbff"/>
      <stop offset=".35" stop-color="#a6edff"/>
      <stop offset="1" stop-color="#7edfff" stop-opacity="0"/>
    </radialGradient>
    <radialGradient id="yellowGlow" cx="50%" cy="50%" r="50%">
      <stop offset="0" stop-color="#fff8c7"/>
      <stop offset=".35" stop-color="#ffd45b"/>
      <stop offset="1" stop-color="#ffb000" stop-opacity="0"/>
    </radialGradient>
    <filter id="softGold" x="-20%" y="-20%" width="140%" height="140%">
      <feDropShadow dx="0" dy="5" stdDeviation="5" flood-color="#000" flood-opacity=".55"/>
      <feDropShadow dx="0" dy="0" stdDeviation="6" flood-color="#ffd34a" flood-opacity=".35"/>
    </filter>
    <filter id="glow" x="-80%" y="-80%" width="260%" height="260%">
      <feGaussianBlur stdDeviation="5" result="blur"/>
      <feMerge>
        <feMergeNode in="blur"/>
        <feMergeNode in="SourceGraphic"/>
      </feMerge>
    </filter>
  </defs>

  <rect width="1024" height="768" fill="#000"/>

  <g filter="url(#softGold)">
    <circle cx="512" cy="260" r="215" fill="none" stroke="url(#gold)" stroke-width="42"/>
    <path d="M498 132v246c0 16-9 26-25 26h-72c-102 0-181-61-181-146s79-146 181-146h52c15 0 25 9 25 25s-10 25-25 25h-52c-70 0-125 40-125 96s55 96 125 96h47v-48h-43c-24 0-43-19-43-42s19-42 43-42h93v-90z" fill="url(#gold)"/>
    <path d="M526 132v49c86 7 150 63 150 135 0 22-8 31-31 31H538c-15 0-25-10-25-25s10-25 25-25h83c-12-38-49-62-95-67v108h123c25 0 43 19 43 43v26c0 84-76 142-177 142h-23c-15 0-25-9-25-25s10-25 25-25h23c66 0 118-35 124-85h-99c-24 0-43-19-43-43V132z" fill="url(#gold)"/>
    <path d="M424 199c-62 15-105 52-105 97 0 42 37 76 93 93" fill="none" stroke="url(#gold)" stroke-width="28" stroke-linecap="round"/>
    <path d="M599 200c61 16 102 53 102 97" fill="none" stroke="url(#gold)" stroke-width="28" stroke-linecap="round"/>
  </g>

  <g filter="url(#glow)" opacity=".9">
    <g transform="translate(135 452) rotate(-17)">
      <circle cx="0" cy="0" r="34" fill="url(#redGlow)"/>
      <ellipse cx="-45" cy="-26" rx="13" ry="48" fill="#ffb4b4" opacity=".82" transform="rotate(-28)"/>
      <ellipse cx="43" cy="-33" rx="12" ry="45" fill="#ffc2c2" opacity=".78" transform="rotate(38)"/>
      <circle cx="-56" cy="42" r="5" fill="#ff9a85"/>
      <circle cx="-36" cy="70" r="4" fill="#ff9a85"/>
      <circle cx="-84" cy="18" r="4" fill="#ff9a85"/>
    </g>
    <g transform="translate(872 470) rotate(17)">
      <circle cx="0" cy="0" r="32" fill="url(#blueGlow)"/>
      <ellipse cx="-43" cy="-29" rx="12" ry="46" fill="#bdeeff" opacity=".82" transform="rotate(-35)"/>
      <ellipse cx="44" cy="-32" rx="13" ry="46" fill="#cef6ff" opacity=".78" transform="rotate(37)"/>
      <circle cx="54" cy="49" r="5" fill="#8beaff"/>
      <circle cx="32" cy="74" r="4" fill="#8beaff"/>
      <circle cx="80" cy="17" r="4" fill="#8beaff"/>
    </g>
    <g transform="translate(512 640)">
      <circle cx="0" cy="0" r="34" fill="url(#yellowGlow)"/>
      <ellipse cx="-35" cy="-40" rx="12" ry="50" fill="#ffe89a" opacity=".82" transform="rotate(-32)"/>
      <ellipse cx="36" cy="-42" rx="12" ry="50" fill="#fff0ad" opacity=".78" transform="rotate(32)"/>
      <circle cx="-55" cy="40" r="5" fill="#ffc329"/>
      <circle cx="-38" cy="70" r="4" fill="#ffc329"/>
      <circle cx="60" cy="46" r="5" fill="#ffc329"/>
    </g>
  </g>
</svg>
